<?xml version="1.0" encoding="utf-8"?>
<!-- Generator: Adobe Illustrator 19.2.0, SVG Export Plug-In . SVG Version: 6.00 Build 0)  -->
<svg version="1.1" id="Слой_1" xmlns="http://www.w3.org/2000/svg" xmlns:xlink="http://www.w3.org/1999/xlink" x="0px" y="0px"
	 viewBox="0 0 44 44" style="enable-background:new 0 0 44 44;" xml:space="preserve">
<g>
	<path d="M32,4H12c-4.4,0-8,3.6-8,8v14c0,3.7,2.6,6.9,6,7.7V40h2.6l9-6H32c4.4,0,8-3.6,8-8V12C40,7.6,36.4,4,32,4z M38,26
		c0,3.3-2.7,6-6,6H21l-9,6v-5.8l-1.5-0.4C7.9,31.1,6,28.7,6,26V12c0-3.3,2.7-6,6-6h20c3.3,0,6,2.7,6,6V26z"/>
</g>
</svg>
