<?xml version="1.0" encoding="utf-8"?>
<!-- Generator: Adobe Illustrator 19.2.0, SVG Export Plug-In . SVG Version: 6.00 Build 0)  -->
<svg version="1.1" id="Слой_1" xmlns="http://www.w3.org/2000/svg" xmlns:xlink="http://www.w3.org/1999/xlink" x="0px" y="0px"
	 viewBox="0 0 44 44" style="enable-background:new 0 0 44 44;" xml:space="preserve">
<style type="text/css">
	.st0{fill:#D81985;}
</style>
<g>
	<path class="st0" d="M39.3,16.9l-11.2-1.7l-5-10.3C22.8,4.3,22.4,4,22,4c-0.4,0-0.8,0.3-1.1,0.9l-5,10.3L4.7,16.9
		c-0.8,0.1-1.2,0.5-1.2,1c0,0.3,0.2,0.7,0.6,1.1l8.1,8l-1.9,11.3c0,0.2,0,0.4,0,0.5c0,0.3,0.1,0.6,0.2,0.8c0.2,0.2,0.4,0.3,0.7,0.3
		c0.3,0,0.6-0.1,0.9-0.3l10-5.4l10,5.4c0.3,0.2,0.6,0.3,0.9,0.3c0.3,0,0.5-0.1,0.7-0.3c0.2-0.2,0.2-0.5,0.2-0.8c0-0.2,0-0.3,0-0.5
		l-1.9-11.3l8.1-8c0.4-0.4,0.6-0.8,0.6-1.1C40.5,17.4,40.1,17,39.3,16.9z"/>
</g>
</svg>
