<?xml version="1.0" encoding="utf-8"?>
<!-- Generator: Adobe Illustrator 19.2.0, SVG Export Plug-In . SVG Version: 6.00 Build 0)  -->
<svg version="1.1" id="Слой_1" xmlns="http://www.w3.org/2000/svg" xmlns:xlink="http://www.w3.org/1999/xlink" x="0px" y="0px"
	 viewBox="0 0 44 44" style="enable-background:new 0 0 44 44;" xml:space="preserve">
<g>
	<path d="M39.3,16.9l-11.2-1.7l-5-10.3C22.8,4.3,22.4,4,22,4c-0.4,0-0.8,0.3-1.1,0.9l-5,10.3L4.7,16.9c-0.8,0.1-1.2,0.5-1.2,1
		c0,0.3,0.2,0.7,0.6,1.1l8.1,8l-1.9,11.3c0,0.2,0,0.4,0,0.5c0,0.3,0.1,0.6,0.2,0.8c0.2,0.2,0.4,0.3,0.7,0.3c0.3,0,0.6-0.1,0.9-0.3
		l10-5.4l10,5.4c0.3,0.2,0.6,0.3,0.9,0.3c0.3,0,0.5-0.1,0.7-0.3c0.2-0.2,0.2-0.5,0.2-0.8c0-0.2,0-0.3,0-0.5l-1.9-11.3l8.1-8
		c0.4-0.4,0.6-0.8,0.6-1.1C40.5,17.4,40.1,17,39.3,16.9z M29.7,26.4l1.8,10.8L22,32.1l-9.5,5.1l1.8-10.8l-7.8-7.7l10.7-1.6L22,7.3
		l4.8,9.8l10.7,1.6L29.7,26.4z"/>
</g>
</svg>
