<?xml version="1.0" encoding="utf-8"?>
<!-- Generator: Adobe Illustrator 19.2.0, SVG Export Plug-In . SVG Version: 6.00 Build 0)  -->
<svg version="1.1" id="Слой_1" xmlns="http://www.w3.org/2000/svg" xmlns:xlink="http://www.w3.org/1999/xlink" x="0px" y="0px"
	 viewBox="0 0 728.1 128.8" style="enable-background:new 0 0 728.1 128.8;" xml:space="preserve">
<style type="text/css">
	.st0{fill:#8D4098;}
	.st1{fill:#A7A9AC;}
</style>
<g>
	<g>
		<g>
			<path class="st0" d="M47.9,104.8L47.9,104.8c-13.2,0-23.9-10.7-23.9-23.9V53.3c0-13.2-10.7-23.9-23.9-23.9h0v51.5v0
				c0,26.4,21.4,47.9,47.9,47.9h0h23.9v0C71.8,115.6,61.1,104.8,47.9,104.8z"/>
		</g>
		<path class="st0" d="M80.9,0L80.9,0H0c0,13.2,10.7,23.9,23.9,23.9h57c13.2,0,23.9,10.7,23.9,23.9v57H80.9
			c0,13.2,10.7,23.9,23.9,23.9h0h23.9V47.9C128.8,21.4,107.3,0,80.9,0z"/>
	</g>
	<g>
		<g>
			<path d="M168.4,79.2V35c0-1.4,0.6-1.9,2-1.9h9.4c1.8,0,2.1,0.4,2.1,1.9v43.2c0,4.5,2.4,5.7,6,5.7h22.6c1.3,0,1.7,0.2,1.7,1.9v7.9
				c0,1.2-0.5,1.9-1.7,1.9h-25.8C171.7,95.6,168.4,87.3,168.4,79.2z"/>
			<path d="M232.6,95.6h-9.4c-1.4,0-2-0.4-2-1.9V35.1c0-1.4,0.6-1.9,2-1.9h9.4c1.8,0,2.1,0.4,2.1,1.9v58.6
				C234.7,95.3,234.4,95.6,232.6,95.6z"/>
			<path d="M260.7,95.6h-9.4c-1.4,0-2-0.4-2-1.9V49.6c0-8.5,4.1-16.5,16.4-16.5h26c1.5,0,1.8,0.4,1.8,2.1v7.6c0,1.5-0.4,2-1.8,2
				h-23.1c-4.6,0-5.8,2.3-5.8,5.5v8.2h25.3c1.4,0,1.7,0.4,1.7,2.1v7c0,1.4-0.4,2-1.7,2h-25.3v24.1C262.8,95.4,262.5,95.6,260.7,95.6
				z"/>
			<path d="M344.8,95.6h-26.4c-13.2,0-16.5-8.3-16.5-16.4V49.6c0-8.5,4.4-16.5,16.4-16.5h25.6c1.4,0,1.7,0.4,1.7,2.1v7.6
				c0,1.5-0.4,2-1.7,2h-22.6c-4.6,0-5.8,2.4-5.8,5.5v6.9H341c1.4,0,1.7,0.4,1.7,2.1v7c0,1.4-0.3,2-1.7,2h-25.6v10.2
				c0,4.2,2,5.3,5.8,5.3h23.5c1.5,0,1.8,0.4,1.8,2.1v7.6C346.6,95,346.2,95.6,344.8,95.6z"/>
			<path class="st0" d="M369.2,95.6h-9.4c-1.4,0-2-0.4-2-1.9V35.1c0-1.4,0.6-1.9,2-1.9h9.4c1.8,0,2.1,0.4,2.1,1.9v58.6
				C371.3,95.3,371,95.6,369.2,95.6z"/>
			<path class="st0" d="M405.9,32.2c6.7,0,14.8,1.5,20,4.1c1.4,0.7,1.5,1.1,0.9,2.9l-2.3,6.7c-0.6,1.7-1,1.7-2.4,1.3
				c-5.6-1.7-11.2-2.9-16.1-2.9c-5.3,0-7.1,2.1-7.1,4.9c0,3.1,2.6,5,10.4,8.1C421.3,62,430,66.3,430,78c0,12.5-9.4,18.6-23.3,18.6
				c-7.7,0-16.9-1.6-23.6-5.6c-1-0.6-1.2-1.2-0.5-2.7l3-7.1c0.6-1.4,1.2-1.6,2.5-1c4.8,2,11.5,4.2,17.6,4.2c7.5,0,9.7-3,9.7-6.2
				c0-3.6-2.3-5.6-9.9-8.5c-12.6-4.7-20.9-9.5-20.9-19.4C384.7,40.3,391.4,32.2,405.9,32.2z"/>
			<path class="st1" d="M439.3,90.2V38.7c0-3.8,1.1-5.5,5.3-5.5h16.7c20.9,0,28.5,14.2,28.5,30.9c0,16.4-6.5,31.6-27.5,31.6h-17.6
				C440.4,95.6,439.3,94,439.3,90.2z M459.8,45h-7v38.7h7.2c12.5,0,15.8-8.2,15.8-19.6C475.9,53.2,472.5,45,459.8,45z"/>
			<path class="st1" d="M513.7,82.6l-3.5,11.3c-0.4,1.2-0.8,1.7-2.5,1.7h-10.4c-1.3,0-1.5-0.8-1.2-1.8L514.6,38
				c1.2-3.9,2.9-4.9,6.5-4.9h5.3c4,0,5.5,0.5,7,4.9l18.5,55.9c0.3,0.7,0.2,1.8-1.2,1.8h-10.6c-1.3,0-2.2-0.1-2.6-1.4l-3.5-11.6
				H513.7z M530.9,71.6l-3.4-11.3l-3.3-12.7h-0.5l-3.4,12.7l-3.4,11.3H530.9z"/>
			<path class="st1" d="M573.3,93.8c0,1.5-0.4,1.9-2,1.9h-9.4c-1.4,0-2-0.4-2-1.9V39.4c0-4.6,1.4-6.2,5.8-6.2h3.7
				c3.7,0,4.5,0.6,6.7,4l15.2,23.1l7.7,12h0.4V35c0-1.4,0.4-1.9,2-1.9h9.4c1.3,0,2,0.6,2,1.9v54.5c0,3.8-1.2,6.1-5.8,6.1h-3.7
				c-3.7,0-4.5-0.6-6.7-3.9l-14.3-21.6l-8.6-13.3h-0.4V93.8z"/>
			<path class="st1" d="M667.8,81.2c1.7-0.7,2.1-0.3,2.8,1.1l3,6.4c0.8,1.7,0.5,2.3-0.5,2.9c-6.4,3.9-13.7,5-20.6,5
				c-19.5,0-28.1-12-28.1-31.8c0-19.5,11.6-32.4,28.7-32.4c6.1,0,11.9,0.7,17.5,3.8c1.3,0.7,1.5,1.1,0.7,3.1l-2.8,6.1
				c-0.6,1.7-1,2-2.7,1.3c-4.3-1.5-7.6-2.3-12.1-2.3c-9.7,0-15.1,8.7-15.1,20.3c0,11.6,3.7,19.5,15.4,19.5
				C659.8,84.3,664,82.6,667.8,81.2z"/>
			<path class="st1" d="M726.3,95.6H700c-13.2,0-16.5-8.3-16.5-16.4V49.6c0-8.5,4.4-16.5,16.4-16.5h25.6c1.4,0,1.7,0.4,1.7,2.1v7.6
				c0,1.5-0.4,2-1.7,2h-22.6c-4.6,0-5.8,2.4-5.8,5.5v6.9h25.6c1.4,0,1.7,0.4,1.7,2.1v7c0,1.4-0.3,2-1.7,2H697v10.2
				c0,4.2,2,5.3,5.8,5.3h23.5c1.5,0,1.8,0.4,1.8,2.1v7.6C728.1,95,727.8,95.6,726.3,95.6z"/>
		</g>
	</g>
</g>
</svg>
