<?xml version="1.0" encoding="utf-8"?>
<!-- Generator: Adobe Illustrator 19.2.0, SVG Export Plug-In . SVG Version: 6.00 Build 0)  -->
<svg version="1.1" id="Слой_1" xmlns="http://www.w3.org/2000/svg" xmlns:xlink="http://www.w3.org/1999/xlink" x="0px" y="0px"
	 viewBox="0 0 44 44" style="enable-background:new 0 0 44 44;" xml:space="preserve">
<g>
	<path d="M40.5,6.9C38.4,5,35.6,4,32,4c-1,0-2,0.2-3,0.5c-1,0.3-2,0.8-2.9,1.4c-0.9,0.6-1.7,1.1-2.3,1.6c-0.6,0.5-1.2,1-1.8,1.6
		c-0.6-0.6-1.2-1.1-1.8-1.6c-0.6-0.5-1.4-1-2.3-1.6C17,5.3,16,4.8,15,4.5C14,4.2,13,4,12,4C8.4,4,5.6,5,3.5,6.9c-2,1.9-3,4.6-3,8.1
		c0,1,0.2,2.1,0.6,3.2c0.4,1.1,0.8,2.1,1.3,2.8c0.5,0.8,1,1.5,1.6,2.3c0.6,0.7,1.1,1.3,1.3,1.5c0.3,0.3,0.5,0.5,0.7,0.6l15,14.1
		c0.3,0.3,0.6,0.4,1.1,0.4c0.4,0,0.8-0.1,1.1-0.4L38,25.5c3.7-3.6,5.5-7.1,5.5-10.5C43.5,11.5,42.5,8.8,40.5,6.9z M21.7,38.1
		C21.7,38.1,21.7,38.1,21.7,38.1C21.7,38.1,21.7,38.1,21.7,38.1z M22.3,38.1L22.3,38.1L22.3,38.1z M36.6,24.1L22,37.8L7.3,24
		l-0.1-0.1c-0.1-0.1-0.3-0.2-0.5-0.4c-0.2-0.2-0.5-0.5-1.2-1.4c-0.5-0.7-1-1.4-1.5-2.1c-0.4-0.7-0.8-1.5-1.1-2.4
		c-0.3-0.9-0.5-1.8-0.5-2.6c0-2.9,0.8-5.1,2.4-6.6C6.6,6.8,8.9,6,12,6c0.8,0,1.6,0.1,2.4,0.4c0.9,0.3,1.7,0.7,2.4,1.1
		c0.8,0.5,1.6,1,2.1,1.5c0.6,0.5,1.1,0.9,1.7,1.4l1.4,1.4l1.4-1.4c0.5-0.5,1.1-1,1.7-1.4c0.6-0.5,1.3-1,2.1-1.5
		c0.7-0.5,1.6-0.9,2.4-1.1C30.4,6.1,31.3,6,32,6c3.1,0,5.4,0.8,7,2.4c1.6,1.6,2.4,3.7,2.4,6.6C41.5,17.8,39.9,20.9,36.6,24.1z"/>
</g>
</svg>
