<svg xmlns="http://www.w3.org/2000/svg" viewBox="0 0 336.35 96.58"><defs><style>.cls-1{fill:#009588;}.cls-2{fill:#231f20;}</style></defs><title>Ресурс 1</title><g id="Слой_2" data-name="Слой 2"><g id="Layer_1" data-name="Layer 1"><path class="cls-1" d="M135.58,63.59v4.66a4.9,4.9,0,0,1-.18,1.48,2.35,2.35,0,0,1-.67,1,6.32,6.32,0,0,1-1.25.86,19.67,19.67,0,0,1-4.24,1.74,17.11,17.11,0,0,1-4.44.55,14.47,14.47,0,0,1-5.11-.86,10.74,10.74,0,0,1-3.93-2.5,11,11,0,0,1-2.49-4,14.87,14.87,0,0,1-.87-5.22,15.25,15.25,0,0,1,.85-5.19,10.65,10.65,0,0,1,2.49-4,10.91,10.91,0,0,1,4-2.51,15.32,15.32,0,0,1,5.34-.87,13.25,13.25,0,0,1,4.34.65,9.57,9.57,0,0,1,3.07,1.65,7.36,7.36,0,0,1,1.77,2.11,4.28,4.28,0,0,1,.6,2,2.11,2.11,0,0,1-.69,1.58,2.31,2.31,0,0,1-1.65.65,2.22,2.22,0,0,1-1-.25,2.32,2.32,0,0,1-.82-.7,19.65,19.65,0,0,0-1.54-2.16,5,5,0,0,0-1.7-1.23,6.48,6.48,0,0,0-2.73-.5,7.53,7.53,0,0,0-3.05.59,6.3,6.3,0,0,0-2.3,1.71,7.7,7.7,0,0,0-1.46,2.74,12.07,12.07,0,0,0-.51,3.6q0,4.28,2,6.58a6.81,6.81,0,0,0,5.48,2.3,11.17,11.17,0,0,0,3.21-.45,16.25,16.25,0,0,0,3-1.28V64.4h-3.81a4.18,4.18,0,0,1-2.08-.41,1.5,1.5,0,0,1-.7-1.41,1.73,1.73,0,0,1,.59-1.34,2.3,2.3,0,0,1,1.6-.53h5.59a7.12,7.12,0,0,1,1.74.18,2,2,0,0,1,1.15.81A3.32,3.32,0,0,1,135.58,63.59Z"/><path class="cls-1" d="M156.28,53H145.19v6H155.4a2.43,2.43,0,0,1,1.68.51,1.72,1.72,0,0,1,.56,1.33,1.78,1.78,0,0,1-.55,1.35,2.37,2.37,0,0,1-1.69.52H145.19v6.91h11.47a2.51,2.51,0,0,1,1.75.54,1.85,1.85,0,0,1,.59,1.43,1.81,1.81,0,0,1-.59,1.4,2.51,2.51,0,0,1-1.75.54H143.29a2.58,2.58,0,0,1-3-3V52.18a4.1,4.1,0,0,1,.31-1.73,2,2,0,0,1,1-1,4.15,4.15,0,0,1,1.72-.31h13a2.53,2.53,0,0,1,1.75.52,1.77,1.77,0,0,1,.57,1.37,1.78,1.78,0,0,1-.57,1.38A2.53,2.53,0,0,1,156.28,53Z"/><path class="cls-1" d="M169.33,51.7,178.8,66V51.57a3.17,3.17,0,0,1,.61-2.11,2,2,0,0,1,1.63-.7,2.11,2.11,0,0,1,1.67.7,3.14,3.14,0,0,1,.61,2.11V70.69q0,3.2-2.65,3.2a3.52,3.52,0,0,1-1.19-.19,3,3,0,0,1-1-.6,5.89,5.89,0,0,1-.86-1l-.8-1.14-9.23-14.16V71.07a3,3,0,0,1-.65,2.11,2.14,2.14,0,0,1-1.66.71,2.11,2.11,0,0,1-1.67-.72,3.1,3.1,0,0,1-.63-2.1V52.32a5.31,5.31,0,0,1,.27-1.87,2.67,2.67,0,0,1,1-1.22,2.84,2.84,0,0,1,1.57-.47,2.58,2.58,0,0,1,2,.8,6,6,0,0,1,.73.94Z"/><path class="cls-1" d="M204.72,53H193.63v6h10.21a2.43,2.43,0,0,1,1.68.51,1.72,1.72,0,0,1,.56,1.33,1.78,1.78,0,0,1-.55,1.35,2.38,2.38,0,0,1-1.69.52H193.63v6.91H205.1a2.51,2.51,0,0,1,1.75.54,1.85,1.85,0,0,1,.59,1.43,1.81,1.81,0,0,1-.59,1.4,2.51,2.51,0,0,1-1.75.54H191.73a2.58,2.58,0,0,1-3-3V52.18a4.1,4.1,0,0,1,.31-1.73,2,2,0,0,1,1-1,4.14,4.14,0,0,1,1.72-.31h13a2.53,2.53,0,0,1,1.75.52,1.77,1.77,0,0,1,.57,1.37,1.78,1.78,0,0,1-.57,1.38A2.52,2.52,0,0,1,204.72,53Z"/><path class="cls-1" d="M218,63.08h-1.72v7.81a3.24,3.24,0,0,1-.68,2.27,2.31,2.31,0,0,1-1.77.73,2.26,2.26,0,0,1-1.82-.76,3.38,3.38,0,0,1-.65-2.24V52.18a2.59,2.59,0,0,1,3-3h8a24.37,24.37,0,0,1,2.83.14,7.13,7.13,0,0,1,2.12.57,6.15,6.15,0,0,1,2,1.38,6,6,0,0,1,1.33,2.08,6.94,6.94,0,0,1,.46,2.51,6.07,6.07,0,0,1-1.53,4.34,8.81,8.81,0,0,1-4.65,2.3,9,9,0,0,1,2.5,2.06,20.89,20.89,0,0,1,2.13,2.89A21.47,21.47,0,0,1,231,70.21a5.47,5.47,0,0,1,.52,1.7,1.74,1.74,0,0,1-.31,1,2.15,2.15,0,0,1-.84.75,2.64,2.64,0,0,1-1.23.27,2.39,2.39,0,0,1-1.39-.39,3.75,3.75,0,0,1-1-1q-.41-.6-1.1-1.76l-2-3.28a18.08,18.08,0,0,0-1.9-2.75,4.69,4.69,0,0,0-1.7-1.29A5.84,5.84,0,0,0,218,63.08Zm2.82-10.21h-4.54v6.68h4.41a12.34,12.34,0,0,0,3-.31,3.5,3.5,0,0,0,1.85-1,3,3,0,0,0,.64-2,3.14,3.14,0,0,0-.51-1.78,3.11,3.11,0,0,0-1.43-1.15A10.26,10.26,0,0,0,220.79,52.86Z"/><path class="cls-1" d="M251.32,70.72l-1.16-3.05h-9.88l-1.16,3.12A10.91,10.91,0,0,1,238,73.25a1.85,1.85,0,0,1-1.57.64,2.31,2.31,0,0,1-1.64-.68,2.08,2.08,0,0,1-.71-1.54,3.44,3.44,0,0,1,.17-1q.17-.53.55-1.48L241,53.38l.64-1.63a8.26,8.26,0,0,1,.8-1.58,3.23,3.23,0,0,1,1.11-1,3.41,3.41,0,0,1,1.7-.39,3.44,3.44,0,0,1,1.72.39,3.3,3.3,0,0,1,1.11,1,7,7,0,0,1,.71,1.32q.29.7.74,1.88L255.83,69a7.88,7.88,0,0,1,.75,2.6,2.15,2.15,0,0,1-.7,1.55,2.32,2.32,0,0,1-1.7.7,2.21,2.21,0,0,1-1-.21,2,2,0,0,1-.7-.56,5.17,5.17,0,0,1-.61-1.09Q251.55,71.28,251.32,70.72ZM241.57,64h7.26l-3.66-10Z"/><path class="cls-1" d="M273,53.23h-5.37V70.88a3.25,3.25,0,0,1-.68,2.26,2.28,2.28,0,0,1-1.76.74,2.31,2.31,0,0,1-1.78-.75,3.23,3.23,0,0,1-.69-2.25V53.23h-5.37a2.72,2.72,0,0,1-1.87-.56,1.88,1.88,0,0,1-.61-1.47,1.86,1.86,0,0,1,.64-1.49,2.76,2.76,0,0,1,1.85-.55H273a2.75,2.75,0,0,1,1.9.56,1.9,1.9,0,0,1,.62,1.48,1.86,1.86,0,0,1-.63,1.47A2.79,2.79,0,0,1,273,53.23Z"/><path class="cls-1" d="M278.63,70.88V51.74a3.23,3.23,0,0,1,.68-2.24,2.27,2.27,0,0,1,1.76-.75,2.35,2.35,0,0,1,1.8.74,3.2,3.2,0,0,1,.69,2.25V70.88a3.23,3.23,0,0,1-.69,2.25,2.33,2.33,0,0,1-1.8.75,2.26,2.26,0,0,1-1.75-.75A3.23,3.23,0,0,1,278.63,70.88Z"/><path class="cls-1" d="M299.75,48.75a13,13,0,0,1,6.49,1.53,9.94,9.94,0,0,1,4.1,4.36,14.86,14.86,0,0,1,1.39,6.64,16.24,16.24,0,0,1-.76,5.12,11.08,11.08,0,0,1-2.29,4A10,10,0,0,1,304.93,73a14.77,14.77,0,0,1-10.2,0A10.13,10.13,0,0,1,291,70.37a11.08,11.08,0,0,1-2.28-4,16.26,16.26,0,0,1-.77-5.09,15.71,15.71,0,0,1,.8-5.14,11,11,0,0,1,2.33-4,10.07,10.07,0,0,1,3.71-2.51A13.37,13.37,0,0,1,299.75,48.75Zm7,12.5a11.41,11.41,0,0,0-.86-4.63,6.44,6.44,0,0,0-2.46-3,6.77,6.77,0,0,0-3.67-1,6.65,6.65,0,0,0-2.73.56,6,6,0,0,0-2.16,1.62,7.72,7.72,0,0,0-1.43,2.71,12.25,12.25,0,0,0-.52,3.71,12.56,12.56,0,0,0,.52,3.75,7.67,7.67,0,0,0,1.48,2.78,6.19,6.19,0,0,0,2.19,1.65,6.91,6.91,0,0,0,6.18-.4,6.53,6.53,0,0,0,2.52-2.92A11.28,11.28,0,0,0,306.74,61.25Z"/><path class="cls-1" d="M322.36,51.7,331.82,66V51.57a3.17,3.17,0,0,1,.61-2.11,2,2,0,0,1,1.63-.7,2.1,2.1,0,0,1,1.67.7,3.14,3.14,0,0,1,.61,2.11V70.69q0,3.2-2.65,3.2a3.51,3.51,0,0,1-1.19-.19,3,3,0,0,1-1-.6,5.88,5.88,0,0,1-.86-1l-.8-1.14-9.23-14.16V71.07a3,3,0,0,1-.65,2.11,2.14,2.14,0,0,1-1.66.71,2.11,2.11,0,0,1-1.67-.72,3.1,3.1,0,0,1-.63-2.1V52.32a5.31,5.31,0,0,1,.27-1.87,2.67,2.67,0,0,1,1-1.22,2.84,2.84,0,0,1,1.57-.47,2.58,2.58,0,0,1,2,.8,6,6,0,0,1,.73.94Z"/><path class="cls-2" d="M131.85,34.44a7.14,7.14,0,0,1-1.14,4,7.54,7.54,0,0,1-3.32,2.75,12.46,12.46,0,0,1-5.19,1,11.68,11.68,0,0,1-5.93-1.36,7.9,7.9,0,0,1-2.69-2.61,5.93,5.93,0,0,1-1-3.17,2.15,2.15,0,0,1,2.2-2.17,1.87,1.87,0,0,1,1.32.5,3.92,3.92,0,0,1,.92,1.48,9.84,9.84,0,0,0,1,1.94A4.06,4.06,0,0,0,119.5,38a5.61,5.61,0,0,0,2.57.51,5.8,5.8,0,0,0,3.56-1A3.07,3.07,0,0,0,127,35a2.69,2.69,0,0,0-.74-2,4.76,4.76,0,0,0-1.91-1.15q-1.17-.4-3.13-.85a22.92,22.92,0,0,1-4.38-1.43,7.09,7.09,0,0,1-2.8-2.24,5.81,5.81,0,0,1-1-3.52,6,6,0,0,1,1.09-3.56,6.9,6.9,0,0,1,3.17-2.4,13,13,0,0,1,4.87-.84,12.06,12.06,0,0,1,3.87.56A8.19,8.19,0,0,1,128.71,19,6.17,6.17,0,0,1,130.29,21a4.45,4.45,0,0,1,.5,2,2.33,2.33,0,0,1-.62,1.58,2,2,0,0,1-1.55.7,1.78,1.78,0,0,1-1.28-.42,5.69,5.69,0,0,1-1-1.38,6.28,6.28,0,0,0-1.59-2.15,4.66,4.66,0,0,0-3-.77,5.17,5.17,0,0,0-3.08.84,2.43,2.43,0,0,0-1.17,2,2,2,0,0,0,.4,1.26,3.35,3.35,0,0,0,1.09.91,7.36,7.36,0,0,0,1.41.6q.71.22,2.35.63a37,37,0,0,1,3.72,1.06,11.31,11.31,0,0,1,2.83,1.41,5.8,5.8,0,0,1,1.82,2.1A6.72,6.72,0,0,1,131.85,34.44Z"/><path class="cls-2" d="M144.23,38.07l-3.9-15.48V39.36a3.05,3.05,0,0,1-.62,2.09,2.28,2.28,0,0,1-3.27,0,3,3,0,0,1-.63-2.1V20.13a2.41,2.41,0,0,1,.83-2.15,4,4,0,0,1,2.24-.56h1.52a5.82,5.82,0,0,1,2,.25,1.68,1.68,0,0,1,.92.9,13.93,13.93,0,0,1,.68,2.11L147.53,34l3.53-13.31a13.88,13.88,0,0,1,.68-2.11,1.68,1.68,0,0,1,.92-.9,5.81,5.81,0,0,1,2-.25h1.53a4,4,0,0,1,2.24.56,2.41,2.41,0,0,1,.83,2.15V39.36a3.05,3.05,0,0,1-.62,2.09,2.12,2.12,0,0,1-1.67.7,2.07,2.07,0,0,1-1.61-.7,3,3,0,0,1-.63-2.09V22.59l-3.9,15.48q-.38,1.51-.62,2.21a3.05,3.05,0,0,1-.89,1.28,2.59,2.59,0,0,1-1.79.58,2.62,2.62,0,0,1-2.39-1.33,5.43,5.43,0,0,1-.52-1.28Z"/><path class="cls-2" d="M179.86,39l-1.16-3.05h-9.88L167.66,39a10.89,10.89,0,0,1-1.16,2.46,1.85,1.85,0,0,1-1.57.64,2.31,2.31,0,0,1-1.64-.68,2.08,2.08,0,0,1-.71-1.54,3.44,3.44,0,0,1,.17-1q.17-.53.55-1.48l6.22-15.78.64-1.63a8.27,8.27,0,0,1,.8-1.58,3.23,3.23,0,0,1,1.11-1,3.41,3.41,0,0,1,1.7-.39,3.44,3.44,0,0,1,1.72.39,3.3,3.3,0,0,1,1.11,1,7,7,0,0,1,.71,1.32q.29.7.74,1.88l6.35,15.68a7.88,7.88,0,0,1,.75,2.6,2.15,2.15,0,0,1-.7,1.55,2.32,2.32,0,0,1-1.7.7,2.21,2.21,0,0,1-1-.21,2,2,0,0,1-.7-.56,5.19,5.19,0,0,1-.61-1.09Q180.09,39.55,179.86,39Zm-9.75-6.75h7.26l-3.66-10Z"/><path class="cls-2" d="M195.34,31.34h-1.72v7.81a3.24,3.24,0,0,1-.68,2.27,2.31,2.31,0,0,1-1.77.73,2.26,2.26,0,0,1-1.82-.76,3.38,3.38,0,0,1-.65-2.24V20.45a3.16,3.16,0,0,1,.71-2.3,3.16,3.16,0,0,1,2.3-.71h8a24.37,24.37,0,0,1,2.83.14,7.13,7.13,0,0,1,2.12.57,6.15,6.15,0,0,1,2,1.38A6,6,0,0,1,208,21.6a6.94,6.94,0,0,1,.46,2.51A6.07,6.07,0,0,1,207,28.46a8.81,8.81,0,0,1-4.65,2.3,9,9,0,0,1,2.5,2.06,20.88,20.88,0,0,1,2.13,2.89,21.5,21.5,0,0,1,1.46,2.77,5.48,5.48,0,0,1,.52,1.7,1.74,1.74,0,0,1-.31,1,2.16,2.16,0,0,1-.84.75,2.64,2.64,0,0,1-1.23.27,2.39,2.39,0,0,1-1.39-.39,3.74,3.74,0,0,1-1-1q-.41-.6-1.1-1.76l-2-3.28a18.08,18.08,0,0,0-1.9-2.75,4.69,4.69,0,0,0-1.7-1.29A5.84,5.84,0,0,0,195.34,31.34Zm2.82-10.21h-4.54v6.68H198a12.34,12.34,0,0,0,3-.31,3.5,3.5,0,0,0,1.85-1,3,3,0,0,0,.64-2,3.14,3.14,0,0,0-.51-1.78,3.11,3.11,0,0,0-1.43-1.15A10.26,10.26,0,0,0,198.16,21.13Z"/><path class="cls-2" d="M227.24,21.49h-5.37V39.15a3.25,3.25,0,0,1-.68,2.26,2.28,2.28,0,0,1-1.76.74,2.31,2.31,0,0,1-1.78-.75,3.23,3.23,0,0,1-.69-2.25V21.49h-5.37a2.72,2.72,0,0,1-1.87-.56,1.88,1.88,0,0,1-.61-1.47,1.86,1.86,0,0,1,.64-1.49,2.76,2.76,0,0,1,1.85-.55h15.65a2.75,2.75,0,0,1,1.9.56,1.9,1.9,0,0,1,.62,1.48,1.86,1.86,0,0,1-.63,1.47A2.79,2.79,0,0,1,227.24,21.49Z"/><path class="cls-1" d="M48.29,0A48.29,48.29,0,1,0,96.58,48.29,48.29,48.29,0,0,0,48.29,0ZM74.61,74.61A37.23,37.23,0,0,1,14,62.78a3,3,0,1,1,5.56-2.35A31.2,31.2,0,0,0,68.11,72.37L66.77,71A3,3,0,0,1,71,66.77l3.57,3.57a3,3,0,0,1,0,4.27Zm.18-23.3h-6.6a20.12,20.12,0,1,1-36.09-15l-7.88-7.88A31,31,0,0,0,20,35.19a3,3,0,1,1-5.47-2.54,37.23,37.23,0,0,1,61.85-8.8,3,3,0,0,1-4.55,4,31.15,31.15,0,0,0-43.32-3.59l7.87,7.87a20.12,20.12,0,0,1,26.16,2,3,3,0,0,1-4.27,4.27,14.08,14.08,0,0,0-19.7-.21,1.54,1.54,0,0,1-.43.43A14.08,14.08,0,1,0,62.05,51.31H54.88a3,3,0,0,1,0-6H74.79a3,3,0,1,1,0,6Z"/></g></g></svg>