<?xml version="1.0" encoding="utf-8"?>
<!-- Generator: Adobe Illustrator 19.2.0, SVG Export Plug-In . SVG Version: 6.00 Build 0)  -->
<svg version="1.1" id="Слой_1" xmlns="http://www.w3.org/2000/svg" xmlns:xlink="http://www.w3.org/1999/xlink" x="0px" y="0px"
	 viewBox="0 0 44 44" style="enable-background:new 0 0 44 44;" xml:space="preserve">
<style type="text/css">
	.st0{fill:#D81985;}
</style>
<g>
	<path class="st0" d="M11,6.5c0-0.1,0-0.3,0.1-0.4C11.2,6,11.4,6,11.5,6h27c0.1,0,0.2,0,0.2,0c0.1,0,0.1,0.1,0.1,0.1
		s0.1,0.1,0.1,0.1c0,0,0,0.1,0,0.2c0,0.1,0,0.1,0,0.2c0,0,0,0.1,0,0.2C39,6.9,39,7,39,7v2.5V26h2c0.3,0,0.5,0.1,0.7,0.3
		c0.2,0.2,0.3,0.4,0.3,0.7c0,0.3-0.1,0.5-0.2,0.6l-3,4C38.6,31.9,38.3,32,38,32c-0.3,0-0.6-0.1-0.8-0.3l-3-4
		C34.1,27.5,34,27.3,34,27c0-0.3,0.1-0.5,0.3-0.7c0.2-0.2,0.4-0.3,0.7-0.3h2V8H12c-0.2,0-0.3-0.1-0.4-0.2l-0.5-1
		C11,6.7,11,6.6,11,6.5z"/>
	<path class="st0" d="M33,37.5c0,0.1,0,0.3-0.1,0.4C32.8,38,32.6,38,32.5,38h-27c-0.1,0-0.2,0-0.2,0c-0.1,0-0.1-0.1-0.1-0.1
		c0-0.1-0.1-0.1-0.1-0.1c0,0,0-0.1,0-0.2c0-0.1,0-0.1,0-0.2c0,0,0-0.1,0-0.2C5,37.1,5,37,5,37v-2.5V18H3c-0.3,0-0.5-0.1-0.7-0.3
		C2.1,17.5,2,17.3,2,17c0-0.2,0.1-0.5,0.2-0.6l3-4C5.4,12.1,5.7,12,6,12c0.3,0,0.6,0.1,0.8,0.3l3,4C9.9,16.5,10,16.7,10,17
		c0,0.3-0.1,0.5-0.3,0.7C9.5,17.9,9.3,18,9,18H7v18h25c0.2,0,0.3,0.1,0.4,0.2l0.5,1C33,37.3,33,37.4,33,37.5z"/>
</g>
</svg>
